# xmcd CD database file
#
# Track frame offsets:
#	150
#	20862
#	39195
#	57730
#	77552
#	91110
#	103865
#	128085
#	144862
#	158100
#	176312
#	191500
#	209347
#
# Disc length: 3065 seconds
#
# Revision: 3
# Processed by: cddbd v1.5.1PL0 Copyright (c) Steve Scherf et al.
# Submitted via: CDex 1.51
#
DISCID=a60bf70d
DTITLE=?????? - ????
DYEAR=1996
DGENRE=New Age
TTITLE0=??????
TTITLE1=???????
TTITLE2=????
TTITLE3=?????
TTITLE4=????
TTITLE5=?????
TTITLE6=????!!????
TTITLE7=??DJ??
TTITLE8=?????????
TTITLE9=?????????????
TTITLE10=???????!?????
TTITLE11=??????????
TTITLE12=??????
EXTD=YEAR: 1996
EXTT0=
EXTT1=
EXTT2=
EXTT3=
EXTT4=
EXTT5=
EXTT6=
EXTT7=
EXTT8=
EXTT9=
EXTT10=
EXTT11=
EXTT12=
PLAYORDER=
